<svg version="1.1" xmlns="http://www.w3.org/2000/svg" xmlns:xlink="http://www.w3.org/1999/xlink" width="72" height="22" viewBox="0 0 72 22">
<g id="Group-1">
<path id="Color-Fill-2" d="M54.994,18.272 C54.932,17.980 55.064,17.692 55.330,17.567 C55.394,17.526 55.870,17.188 56.347,16.168 C56.524,15.791 56.654,15.367 56.778,14.939 C56.868,14.942 56.956,14.953 57.046,14.953 C61.425,14.953 64.975,11.396 64.975,7.008 C64.975,5.818 64.707,4.694 64.240,3.681 C67.239,4.055 69.579,6.614 69.591,9.746 C69.591,9.754 69.591,9.763 69.591,9.771 C69.591,11.655 69.775,14.294 70.651,16.168 C71.129,17.188 71.605,17.526 71.668,17.567 C71.935,17.692 72.067,17.980 72.005,18.272 C71.943,18.567 71.670,18.770 71.373,18.770 C71.373,18.770 55.626,18.770 55.626,18.770 C55.328,18.770 55.055,18.567 54.994,18.272 zM63.400,0.249 C63.400,0.249 63.400,0.249 63.599,0.249 C64.919,0.249 65.994,1.336 65.994,2.673 C65.994,2.673 65.994,2.673 65.994,2.770 C65.214,2.484 64.374,2.328 63.499,2.328 C62.624,2.328 61.784,2.484 61.005,2.769 C61.005,2.769 61.005,2.769 61.005,2.673 C61.005,1.336 62.079,0.249 63.400,0.249 zM57.978,4.220 C57.978,4.220 57.766,1.833 57.766,1.833 C57.735,1.484 57.992,1.172 58.342,1.138 C58.516,1.120 58.681,1.176 58.806,1.279 C58.930,1.381 59.015,1.533 59.031,1.707 C59.031,1.707 59.031,1.707 59.242,4.068 C60.166,4.092 61.087,4.407 61.850,5.038 C63.677,6.549 63.920,9.279 62.393,11.124 C60.865,12.970 58.136,13.242 56.309,11.732 C54.482,10.221 54.238,7.491 55.766,5.646 C56.362,4.925 57.142,4.448 57.978,4.220 zM59.058,5.081 C58.825,5.085 58.593,5.116 58.366,5.168 C57.678,5.327 57.031,5.702 56.545,6.290 C55.377,7.701 55.564,9.789 56.961,10.944 C58.358,12.099 60.445,11.891 61.613,10.479 C62.781,9.069 62.594,6.980 61.198,5.825 C60.574,5.310 59.813,5.068 59.058,5.081 zM57.234,7.689 C57.311,7.708 57.380,7.743 57.437,7.790 C57.582,7.910 57.653,8.105 57.605,8.301 C57.456,8.907 57.659,9.527 58.134,9.921 C58.350,10.099 58.379,10.420 58.199,10.637 C58.019,10.854 57.698,10.886 57.483,10.709 C56.706,10.067 56.375,9.054 56.618,8.067 C56.686,7.793 56.961,7.624 57.234,7.689 zM66.472,20.048 C65.968,21.202 64.825,22.011 63.499,22.011 C62.174,22.011 61.031,21.202 60.527,20.048 C60.527,20.048 60.527,20.048 66.472,20.048 z" fill="#8A4FFF" />
<path id="Color-Fill-2" d="M30.957,18.229 C30.895,17.934 31.027,17.642 31.294,17.516 C31.358,17.475 31.835,17.133 32.313,16.101 C32.490,15.720 32.621,15.291 32.745,14.858 C32.835,14.861 32.923,14.872 33.013,14.872 C37.402,14.872 40.960,11.274 40.960,6.836 C40.960,5.632 40.691,4.495 40.223,3.470 C43.229,3.849 45.574,6.437 45.586,9.605 C45.586,9.613 45.586,9.622 45.586,9.630 C45.586,11.536 45.770,14.205 46.648,16.101 C47.127,17.133 47.604,17.475 47.667,17.516 C47.935,17.642 48.067,17.934 48.005,18.229 C47.943,18.528 47.669,18.733 47.372,18.733 C47.372,18.733 31.590,18.733 31.590,18.733 C31.292,18.733 31.018,18.528 30.957,18.229 zM39.381,-0.001 C39.381,-0.001 39.381,-0.001 39.581,-0.001 C40.904,-0.001 41.981,1.098 41.981,2.451 C41.981,2.451 41.981,2.451 41.981,2.549 C41.199,2.260 40.357,2.102 39.480,2.102 C38.604,2.102 37.762,2.260 36.981,2.548 C36.981,2.548 36.981,2.548 36.981,2.451 C36.981,1.098 38.057,-0.001 39.381,-0.001 zM32.091,7.074 C32.091,7.074 30.270,6.164 30.270,6.164 C30.003,6.031 29.896,5.692 30.031,5.408 C30.098,5.265 30.213,5.164 30.345,5.114 C30.477,5.065 30.626,5.067 30.759,5.134 C30.759,5.134 30.759,5.134 32.560,6.034 C33.001,5.333 33.651,4.767 34.457,4.464 C36.386,3.738 38.470,4.779 39.102,6.785 C39.735,8.791 38.681,11.013 36.752,11.739 C34.823,12.465 32.739,11.424 32.106,9.418 C31.859,8.636 31.872,7.821 32.091,7.074 zM33.208,6.631 C33.104,6.813 33.020,7.004 32.953,7.203 C32.752,7.804 32.728,8.470 32.929,9.108 C33.413,10.642 35.007,11.438 36.482,10.883 C37.957,10.328 38.763,8.628 38.280,7.094 C37.796,5.561 36.202,4.765 34.727,5.320 C34.068,5.567 33.545,6.044 33.208,6.631 zM34.422,9.097 C34.574,9.040 34.749,9.073 34.868,9.198 C35.237,9.586 35.778,9.709 36.281,9.520 C36.508,9.434 36.753,9.556 36.827,9.792 C36.902,10.029 36.778,10.290 36.551,10.376 C35.731,10.684 34.848,10.484 34.246,9.852 C34.079,9.677 34.084,9.388 34.256,9.208 C34.304,9.157 34.361,9.120 34.422,9.097 zM42.460,20.026 C41.955,21.193 40.809,22.011 39.480,22.011 C38.153,22.011 37.007,21.193 36.502,20.026 C36.502,20.026 36.502,20.026 42.460,20.026 z" fill="#8A4FFF" />
<path id="Color-Fill-2-cop" d="M6.994,18.272 C6.932,17.980 7.064,17.692 7.330,17.567 C7.394,17.526 7.870,17.188 8.347,16.168 C8.524,15.791 8.654,15.367 8.778,14.939 C8.868,14.942 8.956,14.953 9.046,14.953 C13.425,14.953 16.975,11.396 16.975,7.008 C16.975,5.818 16.707,4.694 16.240,3.681 C19.239,4.055 21.579,6.614 21.591,9.746 C21.591,9.754 21.591,9.763 21.591,9.771 C21.591,11.655 21.775,14.294 22.651,16.168 C23.129,17.188 23.605,17.526 23.668,17.567 C23.935,17.692 24.067,17.980 24.005,18.272 C23.943,18.567 23.670,18.770 23.373,18.770 C23.373,18.770 7.626,18.770 7.626,18.770 C7.328,18.770 7.055,18.567 6.994,18.272 zM15.400,0.249 C15.400,0.249 15.400,0.249 15.599,0.249 C16.919,0.249 17.994,1.336 17.994,2.673 C17.994,2.673 17.994,2.673 17.994,2.770 C17.214,2.484 16.374,2.328 15.499,2.328 C14.624,2.328 13.784,2.484 13.005,2.769 C13.005,2.769 13.005,2.769 13.005,2.673 C13.005,1.336 14.079,0.249 15.400,0.249 zM3.699,6.524 C3.699,6.524 0.699,5.645 0.699,5.645 C0.260,5.516 0.004,5.055 0.129,4.614 C0.190,4.393 0.336,4.220 0.521,4.117 C0.705,4.015 0.929,3.984 1.149,4.048 C1.149,4.048 1.149,4.048 4.116,4.917 C4.586,3.806 5.408,2.838 6.538,2.212 C9.244,0.713 12.676,1.718 14.189,4.453 C15.703,7.188 14.733,10.633 12.027,12.132 C9.322,13.631 5.889,12.626 4.376,9.891 C3.785,8.824 3.577,7.649 3.699,6.524 zM5.259,5.623 C5.153,5.908 5.080,6.204 5.035,6.505 C4.900,7.417 5.048,8.381 5.530,9.251 C6.687,11.343 9.312,12.111 11.381,10.965 C13.450,9.819 14.192,7.184 13.034,5.093 C11.877,3.002 9.252,2.233 7.183,3.379 C6.260,3.891 5.603,4.700 5.259,5.623 zM7.558,9.082 C7.617,8.997 7.693,8.930 7.778,8.883 C7.992,8.764 8.263,8.771 8.478,8.923 C9.143,9.393 9.993,9.442 10.698,9.052 C11.017,8.875 11.420,8.993 11.598,9.315 C11.776,9.637 11.662,10.042 11.344,10.219 C10.194,10.856 8.806,10.776 7.724,10.010 C7.423,9.797 7.349,9.382 7.558,9.082 zM18.472,20.048 C17.968,21.202 16.825,22.011 15.499,22.011 C14.174,22.011 13.031,21.202 12.527,20.048 C12.527,20.048 12.527,20.048 18.472,20.048 z" fill="#8A4FFF" />
</g>
</svg>
