<svg version="1.1" xmlns="http://www.w3.org/2000/svg" xmlns:xlink="http://www.w3.org/1999/xlink" width="120" height="30" viewBox="0 0 120 30">
<g id="Group-1">
<path id="Color-Fill-8" d="M102.992,14.371 C102.521,14.371 102.138,13.988 102.138,13.515 C102.138,13.042 102.521,12.659 102.992,12.659 C103.464,12.659 103.846,13.042 103.846,13.515 C103.846,13.988 103.464,14.371 102.992,14.371 zM106.409,14.371 C105.937,14.371 105.555,13.988 105.555,13.515 C105.555,13.042 105.937,12.659 106.409,12.659 C106.880,12.659 107.263,13.042 107.263,13.515 C107.263,13.988 106.880,14.371 106.409,14.371 zM109.825,14.371 C109.353,14.371 108.971,13.988 108.971,13.515 C108.971,13.042 109.353,12.659 109.825,12.659 C110.297,12.659 110.679,13.042 110.679,13.515 C110.679,13.988 110.297,14.371 109.825,14.371 zM119.027,21.532 C119.361,21.198 119.361,20.656 119.027,20.321 C117.215,18.505 117.215,18.505 117.215,18.505 C117.215,18.505 117.819,17.900 117.819,17.900 C118.042,17.677 118.124,17.348 118.033,17.046 C117.941,16.744 117.691,16.517 117.382,16.455 C114.096,15.796 114.096,15.796 114.096,15.796 C114.096,15.796 114.096,10.090 114.096,10.090 C114.096,9.617 113.713,9.234 113.241,9.234 C107.889,9.234 107.889,9.234 107.889,9.234 C106.291,6.095 103.065,4.097 99.519,4.097 C94.338,4.097 90.124,8.322 90.124,13.515 C90.124,18.708 94.338,22.933 99.519,22.933 C103.065,22.933 106.291,20.935 107.889,17.796 C110.646,17.796 110.646,17.796 110.646,17.796 C110.646,17.796 111.546,22.306 111.546,22.306 C111.608,22.615 111.835,22.866 112.136,22.957 C112.437,23.049 112.765,22.967 112.988,22.743 C113.591,22.138 113.591,22.138 113.591,22.138 C113.591,22.138 115.403,23.954 115.403,23.954 C115.737,24.288 116.278,24.288 116.611,23.954 C116.611,23.954 119.027,21.532 119.027,21.532 zM112.387,15.453 C112.387,15.453 111.343,15.244 111.343,15.244 C111.063,15.188 110.774,15.276 110.572,15.478 C110.410,15.640 110.322,15.859 110.322,16.084 C109.160,16.084 101.431,16.084 100.430,16.084 C100.430,10.946 100.430,10.946 100.430,10.946 L112.387,10.946 L112.387,15.453 zM97.896,19.251 C97.370,17.933 97.050,16.225 96.974,14.371 C98.722,14.371 98.722,14.371 98.722,14.371 C98.722,14.371 98.722,16.940 98.722,16.940 C98.722,17.413 99.104,17.796 99.576,17.796 C101.601,17.796 101.601,17.796 101.601,17.796 C101.053,20.028 100.164,21.221 99.519,21.221 C99.010,21.221 98.374,20.448 97.896,19.251 zM101.601,9.234 C99.576,9.234 99.576,9.234 99.576,9.234 C99.104,9.234 98.722,9.617 98.722,10.090 C98.722,12.659 98.722,12.659 98.722,12.659 C98.722,12.659 96.974,12.659 96.974,12.659 C97.050,10.805 97.370,9.096 97.896,7.779 C98.374,6.582 99.010,5.809 99.519,5.809 C100.164,5.809 101.053,7.002 101.601,9.234 zM103.354,9.234 C103.110,8.108 102.781,7.144 102.381,6.364 C103.808,6.938 105.044,7.933 105.912,9.234 C105.912,9.234 103.354,9.234 103.354,9.234 zM96.310,7.143 C95.708,8.652 95.344,10.586 95.265,12.659 C91.880,12.659 91.880,12.659 91.880,12.659 C92.197,9.793 94.088,7.396 96.665,6.360 C96.540,6.603 96.421,6.864 96.310,7.143 zM95.265,14.371 C95.344,16.444 95.708,18.377 96.310,19.887 C96.421,20.166 96.540,20.427 96.665,20.670 C94.088,19.633 92.197,17.237 91.880,14.371 C91.880,14.371 95.265,14.371 95.265,14.371 zM103.354,17.796 C105.912,17.796 105.912,17.796 105.912,17.796 C105.044,19.096 103.808,20.092 102.381,20.666 C102.781,19.886 103.110,18.922 103.354,17.796 zM112.988,20.321 C112.908,20.401 112.908,20.401 112.908,20.401 C112.908,20.401 112.265,17.175 112.265,17.175 C113.065,17.335 114.683,17.660 115.483,17.820 C115.403,17.900 115.403,17.900 115.403,17.900 C115.070,18.234 115.070,18.776 115.403,19.111 C117.215,20.927 117.215,20.927 117.215,20.927 L116.007,22.138 C116.007,22.138 114.195,20.321 114.195,20.321 C114.029,20.154 113.810,20.071 113.592,20.071 C113.373,20.071 113.154,20.154 112.988,20.321 zM91.832,4.953 C91.832,2.384 91.832,2.384 91.832,2.384 C91.832,2.384 94.394,2.384 94.394,2.384 C94.866,2.384 95.248,2.001 95.248,1.528 C95.248,1.055 94.866,0.672 94.394,0.672 C90.978,0.672 90.978,0.672 90.978,0.672 C90.506,0.672 90.124,1.055 90.124,1.528 C90.124,4.953 90.124,4.953 90.124,4.953 C90.124,5.426 90.506,5.809 90.978,5.809 C91.450,5.809 91.832,5.426 91.832,4.953 zM115.007,0.672 C114.535,0.672 114.152,1.055 114.152,1.528 C114.152,2.001 114.535,2.384 115.007,2.384 C117.569,2.384 117.569,2.384 117.569,2.384 C117.569,2.384 117.569,4.953 117.569,4.953 C117.569,5.426 117.951,5.809 118.423,5.809 C118.895,5.809 119.277,5.426 119.277,4.953 C119.277,1.528 119.277,1.528 119.277,1.528 C119.277,1.055 118.895,0.672 118.423,0.672 C118.423,0.672 115.007,0.672 115.007,0.672 zM91.832,28.070 C91.832,28.070 91.832,25.616 91.832,25.616 C91.832,25.143 91.450,24.760 90.978,24.760 C90.506,24.760 90.124,25.143 90.124,25.616 C90.124,28.927 90.124,28.927 90.124,28.927 C90.124,29.399 90.506,29.783 90.978,29.783 C94.394,29.783 94.394,29.783 94.394,29.783 C94.866,29.783 95.248,29.399 95.248,28.927 C95.248,28.454 94.866,28.070 94.394,28.070 C94.394,28.070 91.832,28.070 91.832,28.070 zM117.569,25.673 C117.569,28.127 117.569,28.127 117.569,28.127 C117.569,28.127 115.007,28.127 115.007,28.127 C114.535,28.127 114.152,28.511 114.152,28.984 C114.152,29.457 114.535,29.840 115.007,29.840 C118.423,29.840 118.423,29.840 118.423,29.840 C118.895,29.840 119.277,29.457 119.277,28.984 C119.277,25.673 119.277,25.673 119.277,25.673 C119.277,25.200 118.895,24.817 118.423,24.817 C117.951,24.817 117.569,25.200 117.569,25.673 z" fill="#8A4FFF" />
<path id="Color-Fill-8-cop" d="M73.395,14.244 C73.024,14.244 72.723,13.942 72.723,13.569 C72.723,13.197 73.024,12.895 73.395,12.895 C73.766,12.895 74.067,13.197 74.067,13.569 C74.067,13.942 73.766,14.244 73.395,14.244 zM76.084,14.244 C75.713,14.244 75.412,13.942 75.412,13.569 C75.412,13.197 75.713,12.895 76.084,12.895 C76.456,12.895 76.756,13.197 76.756,13.569 C76.756,13.942 76.456,14.244 76.084,14.244 zM78.773,14.244 C78.402,14.244 78.101,13.942 78.101,13.569 C78.101,13.197 78.402,12.895 78.773,12.895 C79.145,12.895 79.446,13.197 79.446,13.569 C79.446,13.942 79.145,14.244 78.773,14.244 zM86.016,19.888 C86.279,19.624 86.279,19.197 86.016,18.934 C84.590,17.502 84.590,17.502 84.590,17.502 C84.590,17.502 85.066,17.025 85.066,17.025 C85.241,16.849 85.305,16.591 85.234,16.352 C85.162,16.114 84.965,15.935 84.722,15.886 C82.135,15.367 82.135,15.367 82.135,15.367 C82.135,15.367 82.135,10.870 82.135,10.870 C82.135,10.497 81.834,10.195 81.462,10.195 C77.250,10.195 77.250,10.195 77.250,10.195 C75.992,7.722 73.452,6.147 70.661,6.147 C66.584,6.147 63.266,9.477 63.266,13.569 C63.266,17.662 66.584,20.992 70.661,20.992 C73.452,20.992 75.992,19.417 77.250,16.943 C79.420,16.943 79.420,16.943 79.420,16.943 C79.420,16.943 80.128,20.497 80.128,20.497 C80.176,20.741 80.355,20.939 80.592,21.011 C80.829,21.083 81.087,21.018 81.263,20.842 C81.738,20.365 81.738,20.365 81.738,20.365 C81.738,20.365 83.164,21.797 83.164,21.797 C83.427,22.060 83.852,22.060 84.115,21.797 C84.115,21.797 86.016,19.888 86.016,19.888 zM80.790,15.097 C80.790,15.097 79.968,14.932 79.968,14.932 C79.748,14.888 79.520,14.957 79.361,15.117 C79.234,15.244 79.164,15.417 79.164,15.594 C78.250,15.594 72.166,15.594 71.378,15.594 C71.378,11.545 71.378,11.545 71.378,11.545 L80.790,11.545 L80.790,15.097 zM69.384,18.090 C68.970,17.052 68.718,15.705 68.658,14.244 C70.034,14.244 70.034,14.244 70.034,14.244 C70.034,14.244 70.034,16.268 70.034,16.268 C70.034,16.641 70.335,16.943 70.706,16.943 C72.300,16.943 72.300,16.943 72.300,16.943 C71.869,18.702 71.169,19.642 70.661,19.642 C70.261,19.642 69.760,19.033 69.384,18.090 zM72.300,10.195 C70.706,10.195 70.706,10.195 70.706,10.195 C70.335,10.195 70.034,10.497 70.034,10.870 C70.034,12.895 70.034,12.895 70.034,12.895 C70.034,12.895 68.658,12.895 68.658,12.895 C68.718,11.434 68.970,10.087 69.384,9.048 C69.760,8.106 70.261,7.496 70.661,7.496 C71.169,7.496 71.869,8.436 72.300,10.195 zM73.680,10.195 C73.488,9.308 73.228,8.548 72.914,7.934 C74.037,8.386 75.010,9.170 75.693,10.195 C75.693,10.195 73.680,10.195 73.680,10.195 zM68.136,8.547 C67.661,9.737 67.375,11.261 67.313,12.895 C64.648,12.895 64.648,12.895 64.648,12.895 C64.898,10.636 66.387,8.747 68.415,7.930 C68.317,8.122 68.223,8.327 68.136,8.547 zM67.313,14.244 C67.375,15.878 67.661,17.402 68.135,18.591 C68.223,18.811 68.317,19.017 68.415,19.208 C66.387,18.391 64.898,16.503 64.648,14.244 C64.648,14.244 67.313,14.244 67.313,14.244 zM73.680,16.943 C75.693,16.943 75.693,16.943 75.693,16.943 C75.010,17.968 74.037,18.753 72.914,19.205 C73.228,18.591 73.488,17.831 73.680,16.943 zM81.263,18.934 C81.200,18.996 81.200,18.996 81.200,18.996 C81.200,18.996 80.693,16.454 80.693,16.454 C81.323,16.580 82.597,16.836 83.226,16.962 C83.164,17.025 83.164,17.025 83.164,17.025 C82.901,17.289 82.901,17.716 83.164,17.979 C84.590,19.411 84.590,19.411 84.590,19.411 L83.639,20.365 C83.639,20.365 82.213,18.934 82.213,18.934 C82.082,18.802 81.910,18.736 81.738,18.736 C81.566,18.736 81.394,18.802 81.263,18.934 zM61.832,4.953 C61.832,2.384 61.832,2.384 61.832,2.384 C61.832,2.384 64.394,2.384 64.394,2.384 C64.866,2.384 65.248,2.001 65.248,1.528 C65.248,1.055 64.866,0.672 64.394,0.672 C60.978,0.672 60.978,0.672 60.978,0.672 C60.506,0.672 60.124,1.055 60.124,1.528 C60.124,4.953 60.124,4.953 60.124,4.953 C60.124,5.426 60.506,5.809 60.978,5.809 C61.450,5.809 61.832,5.426 61.832,4.953 zM85.007,0.672 C84.535,0.672 84.152,1.055 84.152,1.528 C84.152,2.001 84.535,2.384 85.007,2.384 C87.569,2.384 87.569,2.384 87.569,2.384 C87.569,2.384 87.569,4.953 87.569,4.953 C87.569,5.426 87.951,5.809 88.423,5.809 C88.895,5.809 89.277,5.426 89.277,4.953 C89.277,1.528 89.277,1.528 89.277,1.528 C89.277,1.055 88.895,0.672 88.423,0.672 C88.423,0.672 85.007,0.672 85.007,0.672 zM61.832,28.070 C61.832,28.070 61.832,25.616 61.832,25.616 C61.832,25.143 61.450,24.760 60.978,24.760 C60.506,24.760 60.124,25.143 60.124,25.616 C60.124,28.927 60.124,28.927 60.124,28.927 C60.124,29.399 60.506,29.783 60.978,29.783 C64.394,29.783 64.394,29.783 64.394,29.783 C64.866,29.783 65.248,29.399 65.248,28.927 C65.248,28.454 64.866,28.070 64.394,28.070 C64.394,28.070 61.832,28.070 61.832,28.070 zM87.569,25.673 C87.569,28.127 87.569,28.127 87.569,28.127 C87.569,28.127 85.007,28.127 85.007,28.127 C84.535,28.127 84.152,28.511 84.152,28.984 C84.152,29.457 84.535,29.840 85.007,29.840 C88.423,29.840 88.423,29.840 88.423,29.840 C88.895,29.840 89.277,29.457 89.277,28.984 C89.277,25.673 89.277,25.673 89.277,25.673 C89.277,25.200 88.895,24.817 88.423,24.817 C87.951,24.817 87.569,25.200 87.569,25.673 z" fill="#8A4FFF" />
<path id="Color-Fill-8-cop" d="M43.050,14.134 C42.621,14.134 42.274,13.785 42.274,13.354 C42.274,12.924 42.621,12.575 43.050,12.575 C43.479,12.575 43.826,12.924 43.826,13.354 C43.826,13.785 43.479,14.134 43.050,14.134 zM46.155,14.134 C45.727,14.134 45.379,13.785 45.379,13.354 C45.379,12.924 45.727,12.575 46.155,12.575 C46.584,12.575 46.932,12.924 46.932,13.354 C46.932,13.785 46.584,14.134 46.155,14.134 zM49.261,14.134 C48.832,14.134 48.484,13.785 48.484,13.354 C48.484,12.924 48.832,12.575 49.261,12.575 C49.689,12.575 50.037,12.924 50.037,13.354 C50.037,13.785 49.689,14.134 49.261,14.134 zM57.624,20.654 C57.928,20.349 57.928,19.856 57.624,19.551 C55.977,17.898 55.977,17.898 55.977,17.898 C55.977,17.898 56.527,17.347 56.527,17.347 C56.729,17.143 56.804,16.845 56.721,16.569 C56.638,16.294 56.411,16.087 56.130,16.031 C53.142,15.431 53.142,15.431 53.142,15.431 C53.142,15.431 53.142,10.237 53.142,10.237 C53.142,9.806 52.795,9.457 52.366,9.457 C47.501,9.457 47.501,9.457 47.501,9.457 C46.048,6.600 43.116,4.780 39.893,4.780 C35.184,4.780 31.353,8.627 31.353,13.354 C31.353,18.082 35.184,21.929 39.893,21.929 C43.116,21.929 46.048,20.109 47.501,17.252 C50.007,17.252 50.007,17.252 50.007,17.252 C50.007,17.252 50.825,21.358 50.825,21.358 C50.881,21.640 51.087,21.868 51.361,21.951 C51.635,22.034 51.933,21.959 52.135,21.756 C52.684,21.205 52.684,21.205 52.684,21.205 C52.684,21.205 54.331,22.858 54.331,22.858 C54.634,23.163 55.126,23.163 55.429,22.858 C55.429,22.858 57.624,20.654 57.624,20.654 zM51.589,15.119 C51.589,15.119 50.641,14.929 50.641,14.929 C50.386,14.878 50.123,14.958 49.939,15.142 C49.792,15.289 49.712,15.488 49.712,15.693 C48.656,15.693 41.631,15.693 40.721,15.693 C40.721,11.016 40.721,11.016 40.721,11.016 L51.589,11.016 L51.589,15.119 zM38.418,18.577 C37.940,17.377 37.649,15.822 37.580,14.134 C39.168,14.134 39.168,14.134 39.168,14.134 C39.168,14.134 39.168,16.472 39.168,16.472 C39.168,16.903 39.516,17.252 39.945,17.252 C41.785,17.252 41.785,17.252 41.785,17.252 C41.287,19.284 40.480,20.370 39.893,20.370 C39.431,20.370 38.852,19.666 38.418,18.577 zM41.785,9.457 C39.945,9.457 39.945,9.457 39.945,9.457 C39.516,9.457 39.168,9.806 39.168,10.237 C39.168,12.575 39.168,12.575 39.168,12.575 C39.168,12.575 37.580,12.575 37.580,12.575 C37.649,10.887 37.940,9.332 38.418,8.132 C38.852,7.043 39.431,6.339 39.893,6.339 C40.480,6.339 41.287,7.425 41.785,9.457 zM43.379,9.457 C43.157,8.432 42.858,7.554 42.494,6.844 C43.792,7.367 44.915,8.273 45.704,9.457 C45.704,9.457 43.379,9.457 43.379,9.457 zM36.977,7.553 C36.429,8.928 36.098,10.688 36.026,12.575 C32.950,12.575 32.950,12.575 32.950,12.575 C33.238,9.966 34.957,7.784 37.299,6.840 C37.186,7.062 37.078,7.299 36.977,7.553 zM36.026,14.134 C36.098,16.021 36.429,17.781 36.976,19.156 C37.078,19.410 37.185,19.647 37.299,19.869 C34.957,18.925 33.238,16.743 32.950,14.134 C32.950,14.134 36.026,14.134 36.026,14.134 zM43.379,17.252 C45.703,17.252 45.703,17.252 45.703,17.252 C44.915,18.436 43.792,19.342 42.494,19.865 C42.858,19.155 43.157,18.277 43.379,17.252 zM52.135,19.551 C52.063,19.624 52.063,19.624 52.063,19.624 C52.063,19.624 51.478,16.687 51.478,16.687 C52.205,16.833 53.676,17.128 54.403,17.274 C54.331,17.347 54.331,17.347 54.331,17.347 C54.028,17.651 54.028,18.144 54.331,18.449 C55.977,20.103 55.977,20.103 55.977,20.103 L54.880,21.205 C54.880,21.205 53.233,19.551 53.233,19.551 C53.081,19.399 52.883,19.323 52.684,19.323 C52.485,19.323 52.287,19.399 52.135,19.551 zM31.832,4.953 C31.832,2.384 31.832,2.384 31.832,2.384 C31.832,2.384 34.394,2.384 34.394,2.384 C34.866,2.384 35.248,2.001 35.248,1.528 C35.248,1.055 34.866,0.672 34.394,0.672 C30.978,0.672 30.978,0.672 30.978,0.672 C30.506,0.672 30.124,1.055 30.124,1.528 C30.124,4.953 30.124,4.953 30.124,4.953 C30.124,5.426 30.506,5.809 30.978,5.809 C31.450,5.809 31.832,5.426 31.832,4.953 zM55.007,0.672 C54.535,0.672 54.152,1.055 54.152,1.528 C54.152,2.001 54.535,2.384 55.007,2.384 C57.569,2.384 57.569,2.384 57.569,2.384 C57.569,2.384 57.569,4.953 57.569,4.953 C57.569,5.426 57.951,5.809 58.423,5.809 C58.895,5.809 59.277,5.426 59.277,4.953 C59.277,1.528 59.277,1.528 59.277,1.528 C59.277,1.055 58.895,0.672 58.423,0.672 C58.423,0.672 55.007,0.672 55.007,0.672 zM31.832,28.070 C31.832,28.070 31.832,25.616 31.832,25.616 C31.832,25.143 31.450,24.760 30.978,24.760 C30.506,24.760 30.124,25.143 30.124,25.616 C30.124,28.927 30.124,28.927 30.124,28.927 C30.124,29.399 30.506,29.783 30.978,29.783 C34.394,29.783 34.394,29.783 34.394,29.783 C34.866,29.783 35.248,29.399 35.248,28.927 C35.248,28.454 34.866,28.070 34.394,28.070 C34.394,28.070 31.832,28.070 31.832,28.070 zM57.569,25.673 C57.569,28.127 57.569,28.127 57.569,28.127 C57.569,28.127 55.007,28.127 55.007,28.127 C54.535,28.127 54.152,28.511 54.152,28.984 C54.152,29.457 54.535,29.840 55.007,29.840 C58.423,29.840 58.423,29.840 58.423,29.840 C58.895,29.840 59.277,29.457 59.277,28.984 C59.277,25.673 59.277,25.673 59.277,25.673 C59.277,25.200 58.895,24.817 58.423,24.817 C57.951,24.817 57.569,25.200 57.569,25.673 z" fill="#8A4FFF" />
<path id="Color-Fill-8-cop" d="M13.378,14.291 C13.033,14.344 12.710,14.107 12.656,13.760 C12.602,13.413 12.838,13.089 13.184,13.035 C13.529,12.982 13.852,13.219 13.906,13.566 C13.960,13.913 13.724,14.237 13.378,14.291 zM15.879,13.902 C15.533,13.956 15.210,13.719 15.156,13.372 C15.102,13.025 15.339,12.701 15.684,12.647 C16.029,12.594 16.352,12.831 16.406,13.178 C16.460,13.525 16.224,13.849 15.879,13.902 zM18.379,13.514 C18.033,13.568 17.710,13.330 17.656,12.984 C17.602,12.637 17.839,12.313 18.184,12.259 C18.529,12.206 18.852,12.443 18.906,12.790 C18.960,13.136 18.724,13.461 18.379,13.514 zM25.927,17.718 C26.134,17.435 26.072,17.038 25.790,16.831 C24.257,15.705 24.257,15.705 24.257,15.705 C24.257,15.705 24.630,15.193 24.630,15.193 C24.768,15.004 24.790,14.754 24.689,14.543 C24.588,14.332 24.379,14.194 24.146,14.183 C21.666,14.074 21.666,14.074 21.666,14.074 C21.666,14.074 21.017,9.891 21.017,9.891 C20.963,9.545 20.640,9.307 20.294,9.361 C16.378,9.969 16.378,9.969 16.378,9.969 C14.851,7.850 12.263,6.751 9.668,7.154 C5.876,7.743 3.273,11.318 3.864,15.125 C4.455,18.931 8.020,21.549 11.811,20.961 C14.406,20.558 16.539,18.727 17.352,16.245 C19.369,15.931 19.369,15.931 19.369,15.931 C19.369,15.931 20.541,19.135 20.541,19.135 C20.621,19.355 20.816,19.513 21.047,19.545 C21.278,19.578 21.508,19.481 21.646,19.292 C22.019,18.779 22.019,18.779 22.019,18.779 C22.019,18.779 23.551,19.905 23.551,19.905 C23.833,20.112 24.229,20.051 24.435,19.768 C24.435,19.768 25.927,17.718 25.927,17.718 zM20.377,14.017 C20.377,14.017 19.589,13.982 19.589,13.982 C19.378,13.972 19.176,14.070 19.051,14.241 C18.951,14.378 18.912,14.548 18.937,14.713 C18.087,14.845 12.431,15.723 11.698,15.837 C11.114,12.071 11.114,12.071 11.114,12.071 L19.864,10.713 L20.377,14.017 zM10.204,18.447 C9.670,17.540 9.241,16.324 8.974,14.974 C10.253,14.776 10.253,14.776 10.253,14.776 C10.253,14.776 10.546,16.658 10.546,16.658 C10.599,17.005 10.923,17.243 11.268,17.189 C12.750,16.959 12.750,16.959 12.750,16.959 C12.603,18.657 12.088,19.632 11.616,19.706 C11.244,19.764 10.690,19.269 10.204,18.447 zM11.775,10.683 C10.294,10.913 10.294,10.913 10.294,10.913 C9.949,10.967 9.712,11.291 9.766,11.638 C10.058,13.521 10.058,13.521 10.058,13.521 C10.058,13.521 8.780,13.719 8.780,13.719 C8.624,12.352 8.664,11.063 8.899,10.037 C9.112,9.106 9.490,8.467 9.862,8.409 C10.335,8.336 11.121,9.109 11.775,10.683 zM13.058,10.484 C12.752,9.686 12.401,9.017 12.020,8.491 C13.130,8.750 14.148,9.339 14.930,10.193 C14.930,10.193 13.058,10.484 13.058,10.484 zM7.666,9.751 C7.397,10.926 7.351,12.385 7.529,13.913 C5.051,14.298 5.051,14.298 5.051,14.298 C4.958,12.161 6.069,10.190 7.837,9.137 C7.773,9.329 7.716,9.534 7.666,9.751 zM7.723,15.168 C8.017,16.679 8.503,18.055 9.116,19.093 C9.229,19.285 9.346,19.462 9.465,19.626 C7.461,19.159 5.805,17.618 5.246,15.553 C5.246,15.553 7.723,15.168 7.723,15.168 zM14.033,16.760 C15.904,16.469 15.904,16.469 15.904,16.469 C15.418,17.521 14.626,18.391 13.647,18.974 C13.851,18.357 13.983,17.613 14.033,16.760 zM21.370,17.517 C21.321,17.584 21.321,17.584 21.321,17.584 C21.321,17.584 20.483,15.292 20.483,15.292 C21.087,15.319 22.308,15.373 22.911,15.400 C22.862,15.467 22.862,15.467 22.862,15.467 C22.656,15.750 22.718,16.148 23.000,16.355 C24.533,17.480 24.533,17.480 24.533,17.480 L23.787,18.505 C23.787,18.505 22.254,17.379 22.254,17.379 C22.113,17.276 21.943,17.239 21.784,17.264 C21.624,17.289 21.473,17.375 21.370,17.517 zM1.832,4.953 C1.832,2.384 1.832,2.384 1.832,2.384 C1.832,2.384 4.394,2.384 4.394,2.384 C4.866,2.384 5.248,2.001 5.248,1.528 C5.248,1.055 4.866,0.672 4.394,0.672 C0.978,0.672 0.978,0.672 0.978,0.672 C0.506,0.672 0.124,1.055 0.124,1.528 C0.124,4.953 0.124,4.953 0.124,4.953 C0.124,5.426 0.506,5.809 0.978,5.809 C1.450,5.809 1.832,5.426 1.832,4.953 zM25.007,0.672 C24.535,0.672 24.152,1.055 24.152,1.528 C24.152,2.001 24.535,2.384 25.007,2.384 C27.569,2.384 27.569,2.384 27.569,2.384 C27.569,2.384 27.569,4.953 27.569,4.953 C27.569,5.426 27.951,5.809 28.423,5.809 C28.895,5.809 29.277,5.426 29.277,4.953 C29.277,1.528 29.277,1.528 29.277,1.528 C29.277,1.055 28.895,0.672 28.423,0.672 C28.423,0.672 25.007,0.672 25.007,0.672 zM1.832,28.070 C1.832,28.070 1.832,25.616 1.832,25.616 C1.832,25.143 1.450,24.760 0.978,24.760 C0.506,24.760 0.124,25.143 0.124,25.616 C0.124,28.927 0.124,28.927 0.124,28.927 C0.124,29.399 0.506,29.783 0.978,29.783 C4.394,29.783 4.394,29.783 4.394,29.783 C4.866,29.783 5.248,29.399 5.248,28.927 C5.248,28.454 4.866,28.070 4.394,28.070 C4.394,28.070 1.832,28.070 1.832,28.070 zM27.569,25.673 C27.569,28.127 27.569,28.127 27.569,28.127 C27.569,28.127 25.007,28.127 25.007,28.127 C24.535,28.127 24.152,28.511 24.152,28.984 C24.152,29.457 24.535,29.840 25.007,29.840 C28.423,29.840 28.423,29.840 28.423,29.840 C28.895,29.840 29.277,29.457 29.277,28.984 C29.277,25.673 29.277,25.673 29.277,25.673 C29.277,25.200 28.895,24.817 28.423,24.817 C27.951,24.817 27.569,25.200 27.569,25.673 z" fill="#8A4FFF" />
</g>
</svg>
